<svg width="19" height="18" viewBox="0 0 19 18" fill="none" xmlns="http://www.w3.org/2000/svg">
<g clip-path="url(#clip0_1_460)">
<path fill-rule="evenodd" clip-rule="evenodd" d="M18.3354 7.36401H9.85938V10.845H14.7034C14.6031 11.3956 14.3923 11.9202 14.0836 12.387C13.7749 12.8538 13.3748 13.2532 12.9074 13.561V15.82H15.8154C17.5174 14.253 18.4994 11.945 18.4994 9.20501C18.4994 8.56601 18.4424 7.95301 18.3354 7.36401Z" fill="#4285F4"/>
<path fill-rule="evenodd" clip-rule="evenodd" d="M15.8154 15.82L12.9074 13.561C12.1014 14.101 11.0704 14.421 9.85938 14.421C7.51538 14.421 5.53138 12.837 4.82338 10.71H1.81638V13.042C2.56542 14.533 3.71432 15.7862 5.13466 16.6618C6.55501 17.5373 8.19085 18.0007 9.85938 18C12.2894 18 14.3264 17.194 15.8154 15.82Z" fill="#34A853"/>
<path fill-rule="evenodd" clip-rule="evenodd" d="M4.54138 9.00001C4.54138 8.40701 4.64338 7.83001 4.82338 7.29001V4.95801H1.81638C1.18643 6.21224 0.858695 7.59647 0.859376 9.00001C0.859376 10.452 1.20738 11.827 1.81638 13.042L4.82338 10.71C4.63809 10.1589 4.54287 9.58146 4.54138 9.00001Z" fill="#FBBC05"/>
<path fill-rule="evenodd" clip-rule="evenodd" d="M13.2994 4.925L15.8814 2.345C14.3224 0.891001 12.2854 7.07085e-07 9.85938 7.07085e-07C8.19085 -0.000660682 6.55501 0.462675 5.13466 1.33823C3.71432 2.21378 2.56542 3.46706 1.81638 4.958L4.82338 7.29C5.53138 5.163 7.51538 3.58 9.85938 3.58C11.1804 3.58 12.3674 4.034 13.2994 4.925Z" fill="#EA4335"/>
</g>
<defs>
<clipPath id="clip0_1_460">
<rect width="18" height="18" fill="white" transform="translate(0.859375)"/>
</clipPath>
</defs>
</svg>
