<svg width="28" height="36" viewBox="0 0 28 36" fill="none" xmlns="http://www.w3.org/2000/svg">
<path d="M27.5958 26.607L21.9788 20.245H24.1358C24.4416 20.2476 24.7417 20.1625 25.0007 19.9998C25.2596 19.8371 25.4665 19.6036 25.5968 19.327C25.728 19.0534 25.7761 18.7474 25.735 18.4468C25.694 18.1462 25.5656 17.8643 25.3658 17.636L19.8728 11.246H21.9038C22.2151 11.2472 22.5199 11.1573 22.7807 10.9872C23.0414 10.8171 23.2465 10.5744 23.3708 10.289C23.4917 10.0083 23.5277 9.69843 23.4743 9.39755C23.421 9.09668 23.2807 8.81801 23.0708 8.59598L15.3188 0.339976C15.2112 0.232095 15.0834 0.146501 14.9427 0.0880985C14.802 0.0296962 14.6512 -0.000366211 14.4988 -0.000366211C14.3465 -0.000366211 14.1956 0.0296962 14.0549 0.0880985C13.9142 0.146501 13.7864 0.232095 13.6788 0.339976L5.92582 8.59998C5.71613 8.82215 5.576 9.10081 5.52269 9.40162C5.46939 9.70244 5.50524 10.0123 5.62582 10.293C5.75021 10.5783 5.9554 10.821 6.2161 10.991C6.47679 11.1611 6.78157 11.2511 7.09282 11.25H9.12682L3.63282 17.642C3.43365 17.8704 3.30574 18.1522 3.26486 18.4526C3.22399 18.7529 3.27195 19.0586 3.40282 19.332C3.53316 19.6086 3.74004 19.8421 3.99897 20.0048C4.2579 20.1675 4.55803 20.2526 4.86382 20.25H7.01682L1.39582 26.607C1.19038 26.8349 1.05701 27.1185 1.01252 27.4221C0.968027 27.7257 1.01441 28.0357 1.14582 28.313C1.27834 28.5924 1.48756 28.8283 1.74907 28.9933C2.01057 29.1583 2.3136 29.2456 2.62282 29.245H12.2458V30.964L10.1158 34.364C10.0301 34.5355 9.98963 34.726 9.99825 34.9176C10.0069 35.1091 10.0643 35.2953 10.1651 35.4584C10.2659 35.6215 10.4067 35.7561 10.5741 35.8495C10.7416 35.9429 10.9301 35.9919 11.1218 35.992H17.8688C18.0606 35.9919 18.2491 35.9429 18.4165 35.8495C18.584 35.7561 18.7248 35.6215 18.8256 35.4584C18.9263 35.2953 18.9838 35.1091 18.9924 34.9176C19.001 34.726 18.9605 34.5355 18.8748 34.364L16.7448 30.964V29.249H26.3678C26.677 29.2496 26.9801 29.1623 27.2416 28.9973C27.5031 28.8323 27.7123 28.5964 27.8448 28.317C27.9772 28.0393 28.0243 27.7286 27.9799 27.4242C27.9356 27.1198 27.8019 26.8354 27.5958 26.607Z" fill="#67B68C"/>
</svg>
